<?xml version="1.0" encoding="utf-8"?>
<svg width="100" height="100" viewBox="0 0 100 100" fill="none" xmlns="http://www.w3.org/2000/svg">
  <defs>
    <clipPath id="clip_path_1">
      <rect width="100" height="100" rx="20" />
    </clipPath>
  </defs>
  <g clip-path="url(#clip_path_1)">
    <rect width="100" height="100" fill="#2E3192" fill-rule="evenodd" />
    <g transform="translate(14 12.5)">
      <path d="M4.94141 19.5239L17.1606 19.5239Q25.0024 19.5239 29.0308 21.7261Q33.0591 23.9282 33.0591 29.4604Q33.0591 31.6895 32.3474 33.4888Q31.6357 35.2881 30.293 36.4429Q28.9502 37.5977 27.0166 37.9468L27.0166 38.2153Q28.9771 38.6182 30.5615 39.5984Q32.146 40.5786 33.0994 42.4451Q34.0527 44.3115 34.0527 47.3999Q34.0527 50.9717 32.3071 53.5229Q30.5615 56.0742 27.3254 57.4304Q24.0894 58.7866 19.6313 58.7866L4.94141 58.7866L4.94141 19.5239ZM13.2666 35.0732L18.1006 35.0732Q21.7261 35.0732 23.1226 33.9319Q24.519 32.7905 24.519 30.5615Q24.519 28.3057 22.8674 27.3254Q21.2158 26.3452 17.644 26.3452L13.2666 26.3452L13.2666 35.0732ZM13.2666 41.6797L13.2666 51.9116L18.6914 51.9116Q22.4512 51.9116 23.9282 50.4614Q25.4053 49.0112 25.4053 46.5674Q25.4053 45.1172 24.7607 44.0161Q24.1162 42.915 22.5989 42.2974Q21.0815 41.6797 18.4229 41.6797L13.2666 41.6797Z" fill="#E1F0FF" />
      <path d="M-3.30322 58.7866L17.2681 19.5239L27.2852 19.5239L31.2329 58.7866L23.2568 58.7866L22.6123 49.4409L9.90967 49.4409L5.29053 58.7866L-3.30322 58.7866ZM13.2666 42.4585L22.2095 42.4585L21.5112 32.334Q21.4038 30.7227 21.2964 29.0845Q21.189 27.4463 21.2427 25.7275L21.1084 25.7275Q20.5981 27.2046 19.9268 28.6816Q19.2554 30.1587 18.4229 31.8237L13.2666 42.4585Z" transform="translate(36.953 0)" fill="#E1F0FF" />
    </g>
  </g>
</svg>