<?xml version="1.0" encoding="utf-8"?>
<svg width="321" height="66" viewBox="0 0 321 66" fill="none" xmlns="http://www.w3.org/2000/svg">
  <g>
    <g transform="translate(0 20.5)">
      <rect width="15" height="10" fill="#2E3192" fill-rule="evenodd" />
      <rect width="15" height="10" fill="#2E3192" fill-rule="evenodd" transform="translate(0 15)" />
    </g>
    <g transform="translate(15 0)">
      <path d="M4.3125 17.0391L14.9766 17.0391Q21.8203 17.0391 25.3359 18.9609Q28.8516 20.8828 28.8516 25.7109Q28.8516 27.6562 28.2305 29.2266Q27.6094 30.7969 26.4375 31.8047Q25.2656 32.8125 23.5781 33.1172L23.5781 33.3516Q25.2891 33.7031 26.6719 34.5586Q28.0547 35.4141 28.8867 37.043Q29.7188 38.6719 29.7188 41.3672Q29.7188 44.4844 28.1953 46.7109Q26.6719 48.9375 23.8477 50.1211Q21.0234 51.3047 17.1328 51.3047L4.3125 51.3047L4.3125 17.0391ZM11.5781 30.6094L15.7969 30.6094Q18.9609 30.6094 20.1797 29.6133Q21.3984 28.6172 21.3984 26.6719Q21.3984 24.7031 19.957 23.8477Q18.5156 22.9922 15.3984 22.9922L11.5781 22.9922L11.5781 30.6094ZM11.5781 36.375L11.5781 45.3047L16.3125 45.3047Q19.5938 45.3047 20.8828 44.0391Q22.1719 42.7734 22.1719 40.6406Q22.1719 39.375 21.6094 38.4141Q21.0469 37.4531 19.7227 36.9141Q18.3984 36.375 16.0781 36.375L11.5781 36.375ZM36.5625 51.3047L36.5625 17.0391L43.8281 17.0391L43.8281 51.3047L36.5625 51.3047ZM82.8516 51.3047L73.6172 51.3047L58.7109 25.3828L58.5 25.3828Q58.5938 27 58.6641 28.6406Q58.7344 30.2812 58.8047 31.9102Q58.875 33.5391 58.9453 35.1797L58.9453 51.3047L52.4531 51.3047L52.4531 17.0391L61.6172 17.0391L76.5 42.7031L76.6641 42.7031Q76.6172 41.1094 76.5469 39.5391Q76.4766 37.9688 76.418 36.3984Q76.3594 34.8281 76.3125 33.2578L76.3125 17.0391L82.8516 17.0391L82.8516 51.3047Z" fill="#1F1F1F" />
      <path d="M-2.88281 51.3047L15.0703 17.0391L23.8125 17.0391L27.2578 51.3047L20.2969 51.3047L19.7344 43.1484L8.64844 43.1484L4.61719 51.3047L-2.88281 51.3047ZM11.5781 37.0547L19.3828 37.0547L18.7734 28.2188Q18.6797 26.8125 18.5859 25.3828Q18.4922 23.9531 18.5391 22.4531L18.4219 22.4531Q17.9766 23.7422 17.3906 25.0312Q16.8047 26.3203 16.0781 27.7734L11.5781 37.0547ZM31.3828 51.3047L38.625 17.0391L47.9062 17.0391Q54.2109 17.0391 57.6797 20.3672Q61.1484 23.6953 61.1484 30Q61.1484 33.8906 60.3281 37.1953Q59.5078 40.5 57.9258 43.1133Q56.3438 45.7266 54.0117 47.5547Q51.6797 49.3828 48.6562 50.3438Q45.6328 51.3047 41.9531 51.3047L31.3828 51.3047ZM39.7969 45.3047L42.2812 45.3047Q44.6484 45.3047 46.5117 44.5195Q48.375 43.7344 49.7461 42.3281Q51.1172 40.9219 52.0195 39.0469Q52.9219 37.1719 53.3672 34.957Q53.8125 32.7422 53.8125 30.375Q53.8125 26.6016 52.0547 24.7969Q50.2969 22.9922 47.2266 22.9922L44.5312 22.9922L39.7969 45.3047ZM63.8672 51.3047L71.1094 17.0391L79.5234 17.0391Q84.6797 17.0391 87.668 19.2539Q90.6562 21.4688 90.6562 26.4375Q90.6562 29.1562 89.6719 31.1953Q88.6875 33.2344 86.9883 34.6172Q85.2891 36 83.1094 36.75L89.2266 51.3047L81.4453 51.3047L76.5938 38.1562L73.8047 38.1562L71.0156 51.3047L63.8672 51.3047ZM75.0469 32.25L76.875 32.25Q78.3984 32.25 79.6055 31.9102Q80.8125 31.5703 81.6562 30.9023Q82.5 30.2344 82.9336 29.2148Q83.3672 28.1953 83.3672 26.8359Q83.3672 24.9141 82.2422 23.9531Q81.1172 22.9922 78.75 22.9922L77.0156 22.9922L75.0469 32.25ZM93.0469 51.3047L100.336 17.0391L107.508 17.0391L100.195 51.3047L93.0469 51.3047Z" transform="translate(87.164 0)" fill="#1F1F1F" />
      <path d="M24.5391 41.7891Q24.5391 44.8359 23.0625 47.0859Q21.5859 49.3359 18.7617 50.5547Q15.9375 51.7734 11.9062 51.7734Q10.125 51.7734 8.42578 51.5391Q6.72656 51.3047 5.16797 50.8477Q3.60938 50.3906 2.20312 49.7109L2.20312 42.9609Q4.64062 44.0391 7.26562 44.9062Q9.89062 45.7734 12.4688 45.7734Q14.25 45.7734 15.3398 45.3047Q16.4297 44.8359 16.9219 44.0156Q17.4141 43.1953 17.4141 42.1406Q17.4141 40.8516 16.5469 39.9375Q15.6797 39.0234 14.168 38.2266Q12.6562 37.4297 10.7578 36.5156Q9.5625 35.9531 8.15625 35.1445Q6.75 34.3359 5.48438 33.1641Q4.21875 31.9922 3.41016 30.3164Q2.60156 28.6406 2.60156 26.2969Q2.60156 23.2266 4.00781 21.0469Q5.41406 18.8672 8.02734 17.707Q10.6406 16.5469 14.2031 16.5469Q16.875 16.5469 19.3008 17.168Q21.7266 17.7891 24.375 18.9609L22.0312 24.6094Q19.6641 23.6484 17.7891 23.1211Q15.9141 22.5938 13.9688 22.5938Q12.6094 22.5938 11.6484 23.0273Q10.6875 23.4609 10.1953 24.2461Q9.70312 25.0312 9.70312 26.0625Q9.70312 27.2812 10.418 28.1133Q11.1328 28.9453 12.5742 29.7188Q14.0156 30.4922 16.1719 31.5234Q18.7969 32.7656 20.6602 34.1133Q22.5234 35.4609 23.5312 37.2773Q24.5391 39.0938 24.5391 41.7891ZM58.8281 51.3047L51.5859 51.3047L51.5859 36.5156L38.0156 36.5156L38.0156 51.3047L30.75 51.3047L30.75 17.0391L38.0156 17.0391L38.0156 30.4688L51.5859 30.4688L51.5859 17.0391L58.8281 17.0391L58.8281 51.3047Z" transform="translate(194.367 0)" fill="#1F1F1F" />
    </g>
    <g transform="translate(273 20.5)">
      <rect width="48" height="10" fill="#2E3192" fill-rule="evenodd" />
      <rect width="48" height="10" fill="#2E3192" fill-rule="evenodd" transform="translate(0 15)" />
    </g>
  </g>
</svg>